<svg width="222" height="68" viewBox="0 0 222 68" fill="none" xmlns="http://www.w3.org/2000/svg">
<path d="M220.767 60.1578C220.767 63.7816 217.941 66.717 214.445 66.717H7.5634C4.06945 66.717 1.2334 63.7816 1.2334 60.1578V7.85073C1.2334 4.22864 4.06945 1.28302 7.5634 1.28302H214.443C217.941 1.28302 220.765 4.22864 220.765 7.85073L220.767 60.1578Z" fill="black"/>
<path d="M213.778 1.36212C217.585 1.36212 220.682 4.5645 220.682 8.5V59.5C220.682 63.4355 217.585 66.6379 213.778 66.6379H8.22222C4.41533 66.6379 1.31761 63.4355 1.31761 59.5V8.5C1.31761 4.5645 4.41533 1.36212 8.22222 1.36212H213.778ZM213.778 0H8.22222C3.70206 0 0 3.82713 0 8.5V59.5C0 64.1729 3.70206 68 8.22222 68H213.778C218.298 68 222 64.1729 222 59.5V8.5C222 3.82713 218.298 0 213.778 0Z" fill="#292D32"/>
<path d="M49.5439 33.6328C49.4962 28.1537 53.8836 25.4881 54.0842 25.364C51.5994 21.6189 47.7482 21.1072 46.3948 21.0664C43.1602 20.7145 40.0226 23.0673 38.3748 23.0673C36.6942 23.0673 34.1568 21.1004 31.4221 21.1582C27.903 21.2143 24.6108 23.3206 22.8052 26.5914C19.0789 33.2605 21.858 43.061 25.4281 48.4517C27.214 51.0918 29.3008 54.0396 32.0322 53.9359C34.7044 53.822 35.7026 52.1747 38.9274 52.1747C42.1225 52.1747 43.0598 53.9359 45.8455 53.8696C48.7134 53.822 50.519 51.2176 52.2424 48.5537C54.3062 45.5277 55.135 42.5476 55.1679 42.3946C55.1005 42.3708 49.5982 40.1999 49.5439 33.6328Z" fill="white"/>
<path d="M44.2817 17.5202C45.7189 15.6621 46.7023 13.1342 46.4293 10.5689C44.3491 10.6641 41.7476 12.0564 40.2495 13.8737C38.9241 15.4751 37.7401 18.0999 38.0459 20.5683C40.3827 20.7485 42.7819 19.3494 44.2817 17.5202Z" fill="white"/>
<path d="M80.66 17.0153C80.66 19.0162 80.0795 20.5224 78.9202 21.5339C77.8464 22.4672 76.3203 22.9347 74.3437 22.9347C73.3636 22.9347 72.5249 22.8905 71.8228 22.8021V11.8694C72.7387 11.7164 73.7254 11.6382 74.791 11.6382C76.6739 11.6382 78.093 12.0615 79.0501 12.9081C80.1223 13.8652 80.66 15.2337 80.66 17.0153ZM78.8429 17.0646C78.8429 15.7675 78.5107 14.773 77.8464 14.0794C77.182 13.3875 76.2118 13.0407 74.9341 13.0407C74.3914 13.0407 73.9293 13.0781 73.5461 13.1563V21.4676C73.7583 21.5016 74.1464 21.5169 74.7104 21.5169C76.0292 21.5169 77.0472 21.1378 77.7641 20.3796C78.4811 19.6214 78.8429 18.5164 78.8429 17.0646Z" fill="white"/>
<path d="M90.295 18.7629C90.295 19.9954 89.9546 21.0052 89.2738 21.7974C88.5601 22.6117 87.6146 23.018 86.4339 23.018C85.2959 23.018 84.3898 22.6287 83.714 21.8467C83.0398 21.0664 82.7026 20.0821 82.7026 18.8955C82.7026 17.6545 83.0496 16.6362 83.7469 15.8457C84.4441 15.0552 85.3814 14.6591 86.5622 14.6591C87.7001 14.6591 88.6144 15.0484 89.3067 15.8287C89.9645 16.5869 90.295 17.5661 90.295 18.7629ZM88.5075 18.8207C88.5075 18.0812 88.353 17.4471 88.0454 16.9184C87.6837 16.2792 87.169 15.9596 86.4997 15.9596C85.8074 15.9596 85.2811 16.2792 84.9193 16.9184C84.6102 17.4471 84.4573 18.0914 84.4573 18.853C84.4573 19.5925 84.6118 20.2266 84.9193 20.7553C85.2926 21.3945 85.8123 21.7141 86.4832 21.7141C87.141 21.7141 87.6573 21.3894 88.029 20.7383C88.348 20.1994 88.5075 19.5602 88.5075 18.8207Z" fill="white"/>
<path d="M103.213 14.8223L100.788 22.8361H99.2093L98.2045 19.3562C97.9496 18.4875 97.7424 17.6239 97.5813 16.7671H97.55C97.4004 17.6477 97.1932 18.5096 96.9268 19.3562L95.8595 22.8361H94.2628L91.9819 14.8223H93.753L94.6295 18.632C94.8416 19.533 95.0159 20.3915 95.1557 21.2041H95.187C95.3152 20.5343 95.5274 19.6809 95.8266 18.649L96.9268 14.824H98.3311L99.3852 18.5674C99.6401 19.4803 99.8473 20.3592 100.007 21.2058H100.055C100.171 20.3813 100.347 19.5024 100.581 18.5674L101.521 14.824H103.213V14.8223Z" fill="white"/>
<path d="M112.148 22.8361H110.424V18.2461C110.424 16.8317 109.905 16.1245 108.862 16.1245C108.351 16.1245 107.938 16.3183 107.617 16.7076C107.3 17.0969 107.139 17.5559 107.139 18.0812V22.8344H105.416V17.1122C105.416 16.4084 105.394 15.6451 105.353 14.8189H106.868L106.948 16.0718H106.996C107.196 15.6825 107.496 15.3612 107.889 15.1045C108.356 14.8053 108.879 14.654 109.451 14.654C110.175 14.654 110.776 14.8954 111.255 15.3799C111.85 15.9732 112.148 16.8589 112.148 18.0353V22.8361V22.8361Z" fill="white"/>
<path d="M116.9 22.8361H115.179V11.1452H116.9V22.8361Z" fill="white"/>
<path d="M127.047 18.7629C127.047 19.9954 126.706 21.0052 126.025 21.7974C125.312 22.6117 124.364 23.018 123.185 23.018C122.046 23.018 121.14 22.6287 120.465 21.8467C119.791 21.0664 119.454 20.0821 119.454 18.8955C119.454 17.6545 119.801 16.6362 120.498 15.8457C121.196 15.0552 122.133 14.6591 123.312 14.6591C124.452 14.6591 125.364 15.0484 126.058 15.8287C126.716 16.5869 127.047 17.5661 127.047 18.7629ZM125.257 18.8207C125.257 18.0812 125.103 17.4471 124.795 16.9184C124.435 16.2792 123.919 15.9596 123.251 15.9596C122.557 15.9596 122.031 16.2792 121.671 16.9184C121.362 17.4471 121.209 18.0914 121.209 18.853C121.209 19.5925 121.363 20.2266 121.671 20.7553C122.044 21.3945 122.564 21.7141 123.235 21.7141C123.892 21.7141 124.407 21.3894 124.779 20.7383C125.099 20.1994 125.257 19.5602 125.257 18.8207Z" fill="white"/>
<path d="M135.387 22.8361H133.84L133.711 21.913H133.664C133.134 22.6491 132.379 23.018 131.399 23.018C130.667 23.018 130.075 22.7749 129.63 22.2921C129.225 21.8535 129.023 21.3078 129.023 20.6601C129.023 19.6809 129.418 18.9346 130.212 18.4178C131.004 17.901 132.119 17.6477 133.555 17.6596V17.51C133.555 16.4543 133.019 15.9273 131.945 15.9273C131.18 15.9273 130.506 16.1262 129.924 16.5206L129.574 15.351C130.294 14.8903 131.184 14.6591 132.233 14.6591C134.259 14.6591 135.275 15.7641 135.275 17.9741V20.9253C135.275 21.726 135.313 22.3635 135.387 22.8361ZM133.598 20.0821V18.8462C131.697 18.8122 130.746 19.3511 130.746 20.4612C130.746 20.8794 130.855 21.1922 131.077 21.4013C131.299 21.6104 131.582 21.7141 131.919 21.7141C132.297 21.7141 132.651 21.59 132.973 21.3435C133.297 21.0953 133.496 20.7808 133.57 20.3949C133.588 20.3082 133.598 20.2028 133.598 20.0821Z" fill="white"/>
<path d="M145.18 22.8361H143.65L143.57 21.5492H143.522C143.034 22.5284 142.202 23.018 141.032 23.018C140.098 23.018 139.321 22.6389 138.704 21.8807C138.087 21.1225 137.78 20.1382 137.78 18.9295C137.78 17.6324 138.114 16.5818 138.785 15.7794C139.434 15.0314 140.23 14.6574 141.177 14.6574C142.218 14.6574 142.947 15.0195 143.361 15.7454H143.394V11.1452H145.119V20.6771C145.119 21.4574 145.139 22.1765 145.18 22.8361ZM143.394 19.4565V18.1203C143.394 17.8891 143.377 17.7021 143.346 17.5593C143.249 17.1309 143.04 16.7705 142.723 16.4798C142.402 16.1891 142.016 16.0429 141.57 16.0429C140.927 16.0429 140.424 16.3064 140.054 16.8351C139.687 17.3638 139.502 18.0387 139.502 18.8632C139.502 19.6554 139.677 20.298 140.031 20.7927C140.404 21.3197 140.908 21.5832 141.537 21.5832C142.103 21.5832 142.555 21.3639 142.899 20.9236C143.231 20.5173 143.394 20.0277 143.394 19.4565Z" fill="white"/>
<path d="M159.919 18.7629C159.919 19.9954 159.579 21.0052 158.898 21.7974C158.184 22.6117 157.24 23.018 156.058 23.018C154.922 23.018 154.016 22.6287 153.338 21.8467C152.664 21.0664 152.327 20.0821 152.327 18.8955C152.327 17.6545 152.674 16.6362 153.371 15.8457C154.068 15.0552 155.005 14.6591 156.188 14.6591C157.324 14.6591 158.24 15.0484 158.931 15.8287C159.589 16.5869 159.919 17.5661 159.919 18.7629ZM158.133 18.8207C158.133 18.0812 157.979 17.4471 157.671 16.9184C157.308 16.2792 156.795 15.9596 156.124 15.9596C155.433 15.9596 154.907 16.2792 154.543 16.9184C154.234 17.4471 154.081 18.0914 154.081 18.853C154.081 19.5925 154.236 20.2266 154.543 20.7553C154.917 21.3945 155.436 21.7141 156.107 21.7141C156.765 21.7141 157.283 21.3894 157.655 20.7383C157.972 20.1994 158.133 19.5602 158.133 18.8207Z" fill="white"/>
<path d="M169.185 22.8361H167.464V18.2461C167.464 16.8317 166.944 16.1245 165.9 16.1245C165.388 16.1245 164.976 16.3183 164.656 16.7076C164.337 17.0969 164.178 17.5559 164.178 18.0812V22.8344H162.453V17.1122C162.453 16.4084 162.433 15.6451 162.392 14.8189H163.905L163.986 16.0718H164.033C164.236 15.6825 164.535 15.3612 164.926 15.1045C165.395 14.8053 165.916 14.654 166.49 14.654C167.212 14.654 167.814 14.8954 168.292 15.3799C168.889 15.9732 169.185 16.8589 169.185 18.0353V22.8361V22.8361Z" fill="white"/>
<path d="M180.784 16.1568H178.886V20.0498C178.886 21.0392 179.223 21.5339 179.891 21.5339C180.2 21.5339 180.456 21.5067 180.659 21.4506L180.703 22.8021C180.363 22.9347 179.915 23.001 179.365 23.001C178.684 23.001 178.154 22.7868 177.771 22.3584C177.386 21.93 177.196 21.2092 177.196 20.1977V16.1568H176.062V14.8223H177.196V13.3535L178.884 12.8265V14.8206H180.782V16.1568H180.784Z" fill="white"/>
<path d="M189.907 22.8361H188.182V18.2801C188.182 16.8436 187.663 16.1245 186.622 16.1245C185.822 16.1245 185.276 16.541 184.977 17.374C184.926 17.5491 184.897 17.7633 184.897 18.0149V22.8344H183.175V11.1452H184.897V15.9749H184.929C185.472 15.096 186.25 14.6574 187.258 14.6574C187.972 14.6574 188.562 14.8988 189.031 15.3833C189.614 15.9868 189.907 16.8844 189.907 18.071V22.8361V22.8361Z" fill="white"/>
<path d="M199.318 18.4501C199.318 18.7697 199.295 19.0383 199.254 19.2576H194.086C194.109 20.0498 194.355 20.6533 194.834 21.0715C195.271 21.4455 195.835 21.6325 196.526 21.6325C197.291 21.6325 197.988 21.5067 198.616 21.2534L198.886 22.491C198.151 22.8208 197.286 22.9857 196.284 22.9857C195.084 22.9857 194.138 22.6202 193.454 21.8892C192.767 21.1582 192.426 20.1773 192.426 18.9465C192.426 17.7378 192.744 16.7314 193.383 15.929C194.051 15.0722 194.954 14.6438 196.093 14.6438C197.208 14.6438 198.055 15.0722 198.627 15.929C199.09 16.609 199.318 17.4505 199.318 18.4501ZM197.674 17.9894C197.687 17.4607 197.573 17.0051 197.34 16.6209C197.041 16.1262 196.585 15.878 195.968 15.878C195.406 15.878 194.947 16.1194 194.597 16.6039C194.311 16.9898 194.141 17.4505 194.086 17.9894H197.674Z" fill="white"/>
<path d="M88.216 53.5568H84.4815L82.4358 46.9115H75.3253L73.3766 53.5568H69.7407L76.7855 30.9332H81.1367L88.216 53.5568ZM81.8192 44.1235L79.9692 38.216C79.7735 37.6125 79.4068 36.1913 78.8657 33.9541H78.8C78.5845 34.9163 78.2376 36.3375 77.7607 38.216L75.9436 44.1235H81.8192V44.1235Z" fill="white"/>
<path d="M106.333 45.1996C106.333 47.974 105.608 50.167 104.157 51.7769C102.858 53.21 101.245 53.9257 99.3195 53.9257C97.2409 53.9257 95.7477 53.1539 94.8384 51.6103H94.7726V60.2038H91.2666V42.6139C91.2666 40.8697 91.2222 39.0796 91.1367 37.2436H94.2201L94.4157 39.8293H94.4815C95.6507 37.8811 97.4251 36.9087 99.8062 36.9087C101.668 36.9087 103.222 37.6686 104.465 39.1901C105.711 40.7133 106.333 42.7159 106.333 45.1996ZM102.761 45.3322C102.761 43.7444 102.416 42.4354 101.722 41.4052C100.964 40.3308 99.946 39.7936 98.6699 39.7936C97.8049 39.7936 97.0189 40.0928 96.3167 40.6827C95.6129 41.2777 95.1524 42.0546 94.937 43.0168C94.8285 43.4656 94.7742 43.8328 94.7742 44.1218V46.8418C94.7742 48.0284 95.1261 49.0297 95.83 49.8474C96.5338 50.6651 97.4481 51.0731 98.5729 51.0731C99.8934 51.0731 100.921 50.5461 101.656 49.4955C102.393 48.4432 102.761 47.056 102.761 45.3322Z" fill="white"/>
<path d="M124.483 45.1996C124.483 47.974 123.758 50.167 122.306 51.7769C121.008 53.21 119.395 53.9257 117.469 53.9257C115.391 53.9257 113.897 53.1539 112.99 51.6103H112.924V60.2038H109.418V42.6139C109.418 40.8697 109.374 39.0796 109.288 37.2436H112.371L112.567 39.8293H112.633C113.8 37.8811 115.575 36.9087 117.958 36.9087C119.817 36.9087 121.371 37.6686 122.618 39.1901C123.86 40.7133 124.483 42.7159 124.483 45.1996ZM120.911 45.3322C120.911 43.7444 120.564 42.4354 119.87 41.4052C119.112 40.3308 118.097 39.7936 116.82 39.7936C115.953 39.7936 115.169 40.0928 114.465 40.6827C113.761 41.2777 113.302 42.0546 113.087 43.0168C112.98 43.4656 112.924 43.8328 112.924 44.1218V46.8418C112.924 48.0284 113.276 49.0297 113.976 49.8474C114.68 50.6634 115.595 51.0731 116.723 51.0731C118.043 51.0731 119.071 50.5461 119.806 49.4955C120.543 48.4432 120.911 47.056 120.911 45.3322Z" fill="white"/>
<path d="M144.775 47.2124C144.775 49.1368 144.129 50.7025 142.832 51.9112C141.406 53.2321 139.421 53.8917 136.87 53.8917C134.516 53.8917 132.628 53.4225 131.199 52.4824L132.011 49.4615C133.55 50.4237 135.239 50.9065 137.079 50.9065C138.4 50.9065 139.428 50.5971 140.166 49.9817C140.901 49.3663 141.268 48.5401 141.268 47.5099C141.268 46.5919 140.965 45.8184 140.358 45.1911C139.755 44.5638 138.747 43.9807 137.339 43.4418C133.508 41.9645 131.593 39.8004 131.593 36.9546C131.593 35.0948 132.264 33.5699 133.608 32.3833C134.946 31.195 136.732 30.6017 138.965 30.6017C140.957 30.6017 142.611 30.9604 143.932 31.6761L143.055 34.6307C141.822 33.9371 140.427 33.5903 138.867 33.5903C137.633 33.5903 136.67 33.9048 135.979 34.5304C135.395 35.0897 135.103 35.7714 135.103 36.5789C135.103 37.4731 135.436 38.2126 136.107 38.794C136.691 39.3312 137.752 39.9126 139.291 40.5399C141.174 41.3236 142.557 42.2399 143.447 43.2905C144.333 44.3377 144.775 45.6484 144.775 47.2124Z" fill="white"/>
<path d="M156.367 39.9636H152.503V47.8839C152.503 49.8984 153.183 50.9048 154.548 50.9048C155.175 50.9048 155.694 50.8487 156.105 50.7365L156.203 53.4888C155.512 53.7557 154.602 53.89 153.476 53.89C152.091 53.89 151.009 53.4531 150.228 52.581C149.45 51.7072 149.059 50.2418 149.059 48.1831V39.9602H146.757V37.2402H149.059V34.2533L152.503 33.1789V37.2402H156.367V39.9636Z" fill="white"/>
<path d="M173.803 45.2659C173.803 47.7734 173.109 49.8321 171.724 51.442C170.272 53.0995 168.345 53.9257 165.942 53.9257C163.627 53.9257 161.784 53.1318 160.409 51.544C159.034 49.9562 158.347 47.9519 158.347 45.5362C158.347 43.0083 159.054 40.9377 160.473 39.3278C161.889 37.7162 163.8 36.9104 166.202 36.9104C168.518 36.9104 170.381 37.7043 171.787 39.2938C173.132 40.8357 173.803 42.8264 173.803 45.2659ZM170.165 45.3832C170.165 43.8787 169.854 42.5884 169.225 41.5123C168.49 40.2101 167.439 39.5607 166.077 39.5607C164.668 39.5607 163.597 40.2118 162.862 41.5123C162.233 42.5901 161.922 43.9008 161.922 45.4512C161.922 46.9557 162.233 48.246 162.862 49.3204C163.62 50.6226 164.679 51.272 166.046 51.272C167.385 51.272 168.435 50.609 169.193 49.2864C169.84 48.1899 170.165 46.886 170.165 45.3832Z" fill="white"/>
<path d="M185.199 40.4311C184.852 40.3648 184.482 40.3308 184.094 40.3308C182.861 40.3308 181.907 40.8119 181.236 41.7758C180.652 42.6258 180.359 43.7002 180.359 44.9973V53.5568H176.855L176.888 42.381C176.888 40.5008 176.844 38.7889 176.756 37.2453H179.81L179.938 40.3665H180.035C180.405 39.2938 180.989 38.4302 181.788 37.7825C182.569 37.1994 183.413 36.9087 184.322 36.9087C184.646 36.9087 184.939 36.9325 185.199 36.975V40.4311Z" fill="white"/>
<path d="M200.879 44.6284C200.879 45.2778 200.838 45.8251 200.751 46.2722H190.233C190.274 47.8838 190.782 49.1164 191.759 49.9664C192.645 50.7263 193.791 51.107 195.199 51.107C196.756 51.107 198.177 50.8503 199.455 50.3352L200.004 52.8513C198.511 53.5245 196.748 53.8593 194.714 53.8593C192.267 53.8593 190.346 53.1147 188.948 51.6272C187.554 50.1397 186.855 48.1422 186.855 45.6364C186.855 43.1765 187.505 41.1281 188.805 39.4944C190.167 37.7502 192.007 36.8781 194.322 36.8781C196.597 36.8781 198.318 37.7502 199.488 39.4944C200.413 40.8799 200.879 42.5935 200.879 44.6284ZM197.536 43.6882C197.559 42.6138 197.33 41.6856 196.855 40.9019C196.248 39.8938 195.316 39.3906 194.061 39.3906C192.915 39.3906 191.982 39.882 191.27 40.868C190.687 41.6517 190.34 42.5918 190.233 43.6866H197.536V43.6882Z" fill="white"/>
</svg>
