<svg width="222" height="69" viewBox="0 0 222 69" fill="none" xmlns="http://www.w3.org/2000/svg">
<path d="M213.778 69H8.22222C3.70206 69 0 65.1166 0 60.375V8.625C0 3.88341 3.70206 3.8147e-06 8.22222 3.8147e-06H213.778C218.298 3.8147e-06 222 3.88341 222 8.625V60.375C222 65.1166 218.298 69 213.778 69Z" fill="black"/>
<path d="M213.778 1.38216C217.585 1.38216 220.682 4.63163 220.682 8.625V60.375C220.682 64.3684 217.585 67.6178 213.778 67.6178H8.22222C4.41533 67.6178 1.31761 64.3684 1.31761 60.375V8.625C1.31761 4.63163 4.41533 1.38216 8.22222 1.38216H213.778ZM213.778 3.8147e-06H8.22222C3.70206 3.8147e-06 0 3.88341 0 8.625V60.375C0 65.1166 3.70206 69 8.22222 69H213.778C218.298 69 222 65.1166 222 60.375V8.625C222 3.88341 218.298 3.8147e-06 213.778 3.8147e-06Z" fill="#292D32"/>
<path d="M17.1596 13.0043C16.6765 13.5348 16.397 14.3606 16.397 15.4301V53.5785C16.397 54.648 16.6765 55.4739 17.1596 56.0043L17.2788 56.1207L37.6576 34.7523V34.2477L17.2788 12.8793L17.1596 13.0043Z" fill="url(#paint0_linear_32_3789)"/>
<path d="M44.4431 41.8787L37.6577 34.7523V34.2477L44.4513 27.1213L44.6034 27.214L52.6489 32.016C54.9449 33.3787 54.9449 35.6212 52.6489 36.9926L44.6034 41.7859L44.4431 41.8787V41.8787Z" fill="url(#paint1_linear_32_3789)"/>
<path d="M44.6034 41.786L37.6577 34.5L17.1597 56.0043C17.9223 56.8452 19.1659 56.9465 20.5801 56.1056L44.6034 41.786" fill="url(#paint2_linear_32_3789)"/>
<path d="M44.6034 27.214L20.5801 12.8944C19.1659 12.0621 17.9223 12.1634 17.1597 13.0043L37.6577 34.5L44.6034 27.214Z" fill="url(#paint3_linear_32_3789)"/>
<path d="M77.9755 17.6705C77.9755 19.1109 77.5644 20.2645 76.7545 21.1248C75.8233 22.1447 74.6106 22.6579 73.1244 22.6579C71.704 22.6579 70.4912 22.1361 69.4963 21.1076C68.4994 20.0639 68.002 18.7831 68.002 17.25C68.002 15.7169 68.4994 14.4361 69.4963 13.4011C70.4912 12.364 71.704 11.8422 73.1244 11.8422C73.8315 11.8422 74.5057 11.9953 75.1491 12.2799C75.7904 12.5667 76.3126 12.9548 76.6908 13.4335L75.8316 14.3434C75.1717 13.5262 74.2735 13.123 73.1244 13.123C72.0884 13.123 71.1901 13.5025 70.4275 14.2679C69.6731 15.0356 69.2949 16.0296 69.2949 17.25C69.2949 18.4705 69.6731 19.4731 70.4275 20.2408C71.1901 20.9976 72.0884 21.3857 73.1244 21.3857C74.2241 21.3857 75.1491 20.9976 75.8788 20.2321C76.3598 19.7254 76.6332 19.0268 76.7052 18.1341H73.1244V16.8878H77.9015C77.9591 17.1573 77.9755 17.4182 77.9755 17.6705V17.6705Z" fill="white" stroke="white" stroke-width="0.16" stroke-miterlimit="10"/>
<path d="M85.5545 13.3494H81.0672V16.6269H85.1125V17.8732H81.0672V21.1507H85.5545V22.4207H79.7969V12.0793H85.5545V13.3494Z" fill="white" stroke="white" stroke-width="0.16" stroke-miterlimit="10"/>
<path d="M90.9031 22.4207H89.6328V13.3494H86.8804V12.0793H93.6575V13.3494H90.9031V22.4207V22.4207Z" fill="white" stroke="white" stroke-width="0.16" stroke-miterlimit="10"/>
<path d="M98.562 22.4207V12.0793H99.8303V22.4207H98.562Z" fill="white" stroke="white" stroke-width="0.16" stroke-miterlimit="10"/>
<path d="M105.452 22.4207H104.192V13.3494H101.429V12.0793H108.215V13.3494H105.452V22.4207Z" fill="white" stroke="white" stroke-width="0.16" stroke-miterlimit="10"/>
<path d="M121.046 21.0903C120.073 22.1361 118.869 22.6579 117.432 22.6579C115.987 22.6579 114.782 22.1361 113.81 21.0903C112.84 20.0467 112.357 18.7659 112.357 17.25C112.357 15.7342 112.84 14.4534 113.81 13.4098C114.782 12.364 115.987 11.8422 117.432 11.8422C118.861 11.8422 120.065 12.364 121.038 13.4184C122.016 14.4706 122.499 15.7428 122.499 17.25C122.499 18.7659 122.016 20.0467 121.046 21.0903ZM114.75 20.2235C115.481 20.9976 116.371 21.3857 117.432 21.3857C118.485 21.3857 119.383 20.9976 120.106 20.2235C120.836 19.4494 121.206 18.4554 121.206 17.25C121.206 16.0447 120.836 15.0507 120.106 14.2766C119.383 13.5025 118.485 13.1144 117.432 13.1144C116.371 13.1144 115.481 13.5025 114.75 14.2766C114.02 15.0507 113.65 16.0447 113.65 17.25C113.65 18.4554 114.02 19.4494 114.75 20.2235V20.2235Z" fill="white" stroke="white" stroke-width="0.16" stroke-miterlimit="10"/>
<path d="M124.281 22.4207V12.0793H125.822L130.616 20.1222H130.671L130.616 18.1341V12.0793H131.884V22.4207H130.56L125.541 13.9812H125.485L125.541 15.9778V22.4207H124.281V22.4207Z" fill="white" stroke="white" stroke-width="0.16" stroke-miterlimit="10"/>
<path d="M112.044 37.5231C108.182 37.5231 105.026 40.6065 105.026 44.8608C105.026 49.0806 108.182 52.1963 112.044 52.1963C115.915 52.1963 119.07 49.0806 119.07 44.8608C119.07 40.6065 115.915 37.5231 112.044 37.5231ZM112.044 49.307C109.925 49.307 108.101 47.472 108.101 44.8608C108.101 42.2151 109.925 40.4124 112.044 40.4124C114.163 40.4124 115.995 42.2151 115.995 44.8608C115.995 47.472 114.163 49.307 112.044 49.307V49.307ZM96.7322 37.5231C92.8616 37.5231 89.7145 40.6065 89.7145 44.8608C89.7145 49.0806 92.8616 52.1963 96.7322 52.1963C100.601 52.1963 103.75 49.0806 103.75 44.8608C103.75 40.6065 100.601 37.5231 96.7322 37.5231ZM96.7322 49.307C94.6108 49.307 92.7814 47.472 92.7814 44.8608C92.7814 42.2151 94.6108 40.4124 96.7322 40.4124C98.8514 40.4124 100.675 42.2151 100.675 44.8608C100.675 47.472 98.8514 49.307 96.7322 49.307ZM78.5117 39.772V42.89H85.6096C85.4019 44.6322 84.8469 45.913 83.996 46.8057C82.96 47.8839 81.3463 49.0806 78.5117 49.0806C74.1437 49.0806 70.7232 45.3826 70.7232 40.8006C70.7232 36.2185 74.1437 32.5206 78.5117 32.5206C80.8736 32.5206 82.592 33.4887 83.8603 34.7437L85.9549 32.5464C84.181 30.7697 81.8212 29.4048 78.5117 29.4048C72.5218 29.4048 67.4878 34.5173 67.4878 40.8006C67.4878 47.0839 72.5218 52.1963 78.5117 52.1963C81.7492 52.1963 84.181 51.0837 86.0926 48.9965C88.0516 46.9416 88.6621 44.0522 88.6621 41.7191C88.6621 40.9946 88.6045 40.3284 88.5017 39.772H78.5117ZM153.017 42.1892C152.44 40.5483 150.658 37.5231 147.027 37.5231C143.43 37.5231 140.435 40.4965 140.435 44.8608C140.435 48.9706 143.399 52.1963 147.373 52.1963C150.586 52.1963 152.44 50.1414 153.202 48.9447L150.818 47.2779C150.022 48.4984 148.939 49.307 147.373 49.307C145.817 49.307 144.701 48.5588 143.985 47.0839L153.34 43.0237L153.017 42.1892V42.1892ZM143.48 44.6322C143.399 41.8032 145.574 40.3542 147.132 40.3542C148.353 40.3542 149.389 40.9946 149.735 41.911L143.48 44.6322V44.6322ZM135.876 51.75H138.951V30.1875H135.876V51.75ZM130.84 39.1575H130.737C130.047 38.2993 128.729 37.5231 127.06 37.5231C123.557 37.5231 120.355 40.7488 120.355 44.8845C120.355 48.9965 123.557 52.1963 127.06 52.1963C128.729 52.1963 130.047 51.4136 130.737 50.5296H130.84V51.5818C130.84 54.3871 129.411 55.8943 127.107 55.8943C125.228 55.8943 124.063 54.4712 123.582 53.2745L120.908 54.4453C121.678 56.3903 123.72 58.7837 127.107 58.7837C130.713 58.7837 133.755 56.5584 133.755 51.1441V37.9694H130.84V39.1575V39.1575ZM127.323 49.307C125.204 49.307 123.43 47.4461 123.43 44.8845C123.43 42.2992 125.204 40.4124 127.323 40.4124C129.411 40.4124 131.058 42.2992 131.058 44.8845C131.058 47.4461 129.411 49.307 127.323 49.307V49.307ZM167.414 30.1875H160.06V51.75H163.127V43.58H167.414C170.821 43.58 174.161 40.9946 174.161 36.8827C174.161 32.7729 170.812 30.1875 167.414 30.1875V30.1875ZM167.495 40.5806H163.127V33.1869H167.495C169.785 33.1869 171.092 35.1814 171.092 36.8827C171.092 38.5516 169.785 40.5806 167.495 40.5806ZM186.453 37.4821C184.237 37.4821 181.933 38.5085 180.985 40.7833L183.707 41.98C184.293 40.7833 185.37 40.3952 186.509 40.3952C188.1 40.3952 189.713 41.3979 189.738 43.1681V43.3945C189.183 43.0582 187.995 42.5601 186.533 42.5601C183.602 42.5601 180.615 44.2527 180.615 47.4116C180.615 50.301 183.016 52.1618 185.715 52.1618C187.779 52.1618 188.918 51.1851 189.633 50.0487H189.738V51.7155H192.7V43.4441C192.7 39.6211 189.978 37.4821 186.453 37.4821ZM186.083 49.2984C185.08 49.2984 183.682 48.7765 183.682 47.472C183.682 45.8031 185.425 45.1627 186.934 45.1627C188.285 45.1627 188.918 45.4753 189.738 45.8872C189.497 47.8839 187.859 49.2984 186.083 49.2984V49.2984ZM203.492 37.9543L199.966 47.3017H199.861L196.217 37.9543H192.91L198.386 51.0169L195.261 58.2856H198.466L206.904 37.9543H203.492V37.9543ZM175.846 51.75H178.921V30.1875H175.846V51.75Z" fill="white"/>
<defs>
<linearGradient id="paint0_linear_32_3789" x1="35.8482" y1="53.9758" x2="6.93163" y2="26.4096" gradientUnits="userSpaceOnUse">
<stop stop-color="#00A0FF"/>
<stop offset="0.0066" stop-color="#00A1FF"/>
<stop offset="0.2601" stop-color="#00BEFF"/>
<stop offset="0.5122" stop-color="#00D2FF"/>
<stop offset="0.7604" stop-color="#00DFFF"/>
<stop offset="1" stop-color="#00E3FF"/>
</linearGradient>
<linearGradient id="paint1_linear_32_3789" x1="55.6387" y1="34.4976" x2="15.8483" y2="34.4976" gradientUnits="userSpaceOnUse">
<stop stop-color="#FFE000"/>
<stop offset="0.4087" stop-color="#FFBD00"/>
<stop offset="0.7754" stop-color="#FFA500"/>
<stop offset="1" stop-color="#FF9C00"/>
</linearGradient>
<linearGradient id="paint2_linear_32_3789" x1="40.8265" y1="30.5392" x2="1.6133" y2="-6.84278" gradientUnits="userSpaceOnUse">
<stop stop-color="#FF3A44"/>
<stop offset="1" stop-color="#C31162"/>
</linearGradient>
<linearGradient id="paint3_linear_32_3789" x1="11.9999" y1="68.6961" x2="29.5103" y2="52.0035" gradientUnits="userSpaceOnUse">
<stop stop-color="#32A071"/>
<stop offset="0.0685" stop-color="#2DA771"/>
<stop offset="0.4762" stop-color="#15CF74"/>
<stop offset="0.8009" stop-color="#06E775"/>
<stop offset="1" stop-color="#00F076"/>
</linearGradient>
</defs>
</svg>
